<svg xmlns="http://www.w3.org/2000/svg" width="500" zoomAndPan="magnify" viewBox="0 0 375 375" height="500" preserveAspectRatio="xMidYMid meet" xmlns:v="https://vecta.io/nano"><style><![CDATA[.B{fill:rgb(100%, 100%, 100%)}.C{fill:rgb(65.098572%, 65.098572%, 65.098572%)}.D{fill:rgb(85.099792%, 85.099792%, 85.099792%)}]]></style><defs><clipPath id="A"><path d="M19 73.801h337V301H19zm0 0" clip-rule="nonzero"/></clipPath></defs><path d="M-37.5-37.5h450v450h-450z" class="B"/><path d="M-37.5-37.5h450v450h-450z" class="C"/><path d="M-37.5-37.5h450v450h-450z" class="B"/><path d="M-37.5-37.5h450v450h-450z" class="C"/><path d="M211.426 163.852c15.074 0 27.336-12.25 27.336-27.312s-12.262-27.316-27.336-27.316-27.34 12.254-27.34 27.316 12.266 27.313 27.34 27.313zm0-40.875c7.484 0 13.57 6.086 13.57 13.563s-6.086 13.563-13.57 13.563a13.59 13.59 0 0 1-13.574-13.562c0-7.476 6.086-13.562 13.574-13.562zm139.875 53.496a6.87 6.87 0 0 0-7.625 2.031l-29.84 35.426-.191.219-63.512 75.41c-1.727 2.051-2.105 4.906-.977 7.332a6.89 6.89 0 0 0 6.238 3.973h93.551c3.797 0 6.883-3.082 6.883-6.875V182.93c-.004-2.887-1.812-5.469-4.527-6.457zm-9.242 110.641h-64.422l-4.027-4.031 45.742-54.344 22.711 22.684v35.691zm0-55.137l-13.812-13.801 13.813-16.398zm0 0" class="D"/><g clip-path="url(#A)" class="D"><path d="M348.941 73.648H26.176a6.88 6.88 0 0 0-6.883 6.875v213.465c0 3.793 3.082 6.875 6.883 6.875h174.941a6.89 6.89 0 0 0 5.266-2.449l147.828-175.488a6.86 6.86 0 0 0 1.617-4.43V80.523c-.004-3.797-3.086-6.875-6.887-6.875zM197.914 287.113H33.059v-56.805l84.129-84.047 87.195 87.109 21.066 21.051zm36.434-43.25l-15.367-15.352 50.074-50.031 11.059 11.051zm107.711-127.875l-53.055 62.98-15.086-15.074a6.89 6.89 0 0 0-4.867-2.016c-1.824 0-3.574.727-4.867 2.016l-54.934 54.895-87.195-87.113c-1.348-1.344-3.105-2.012-4.867-2.012s-3.52.668-4.867 2.012l-79.262 79.188V87.398h309.004v28.59zm0 0"/></g></svg>