<svg xmlns="http://www.w3.org/2000/svg" width="72" height="72" xmlns:v="https://vecta.io/nano"><path d="M72 36c0 19.884-16.116 36-36 36S0 55.884 0 36 16.116 0 36 0s36 16.116 36 36z" fill="#a6ce39"/><path d="M23.906 52.035h-4.342V22.054h4.342v13.549 16.432zm6.372-29.981h11.729c11.165 0 16.071 7.922 16.071 15.004 0 7.698-6.062 15.004-16.014 15.004H30.278V22.054zm4.342 26.118h6.908c9.84 0 12.095-7.418 12.095-11.113 0-6.019-3.863-11.113-12.321-11.113H34.62v22.227zm-10.037-32.36a2.85 2.85 0 0 1-2.848 2.827 2.85 2.85 0 0 1-2.848-2.827 2.83 2.83 0 0 1 2.848-2.827 2.85 2.85 0 0 1 2.848 2.827z" fill="#fff"/></svg>