<svg xmlns="http://www.w3.org/2000/svg" width="552.053" height="552.873" viewBox="0 0 146.064 146.281" xmlns:v="https://vecta.io/nano"><path d="M68.521 146.131c-31.105-1.647-58.69-24.36-66.36-54.639C.386 84.484 0 81.199 0 73.102s.386-11.382 2.161-18.389C8.559 29.456 29.277 8.74 54.652 2.226 60.756.659 66.199 0 73.032 0c16.328 0 31.045 4.891 44.027 14.632 12.928 9.701 22.525 23.927 26.668 39.53 1.923 7.245 2.338 10.6 2.338 18.94s-.414 11.695-2.338 18.94c-7.514 28.302-31.831 49.731-60.77 53.554-5.32.703-8.814.832-14.435.534z" fill="#2c2b64"/><path d="M32.078 81.077l5.777 1.458c9.514 2.65 19.186 4.267 29.097 4.373 10.07.132 19.769-1.378 28.965-5.618 5.644-2.597 10.415-6.254 13.594-11.766 2.703-4.664 2.968-9.673 1.855-14.734-.609-2.782-1.749-5.433-2.597-8.189-.371-1.219-.636-2.464-.848-3.71-.132-.795.292-1.192 1.113-.795.345.159.742.345 1.007.61 5.273 5.432 10.203 11.103 13.224 18.206 2.73 6.44 3.763 13.144 2.942 20.034-.557 4.611-2.385 8.904-4.452 13.065-5.141 10.388-13.303 17.914-23.002 23.93-10.176 6.307-21.279 10.362-32.886 13.118-4.108.98-8.295 1.643-12.429 2.597-1.193.265-1.616-.079-2.014-1.139L38.332 98.01l-5.856-15.45c-.106-.371-.186-.742-.398-1.484zm-2.597-26.792c-.026-3.233.345-8.401 1.935-13.356 3.736-11.607 10.971-19.716 23.135-22.922 7.976-2.094 15.9-1.564 23.877-.079 8.825 1.669 17.119 4.85 25.149 8.824.715.345 1.166 1.219 1.749 1.829-.689.292-1.378.875-2.067.875-1.749-.027-3.498-.239-5.247-.477-6.175-.768-12.376-1.484-18.603-.556-3.763.556-7.34 1.59-10.441 3.869-3.71 2.703-5.433 6.652-6.042 11.051-.822 5.856-.026 11.607 1.192 17.331 1.511 7.102 3.949 13.886 6.731 20.591.344.822.61 1.643.927 2.465.371.954.053 1.378-.954 1.219l-7.181-1.219-19.769-3.498-10.282-1.855c-.504-.106-1.193-.742-1.299-1.245-1.616-6.837-2.862-13.78-2.809-22.843zm62.487 16.669c-5.273.026-9.355-1.299-13.065-3.63-4.001-2.517-7.314-5.724-9.142-10.176-1.537-3.657-2.2-7.446-.477-11.289 1.882-4.213 5.247-6.492 9.646-7.155 6.651-1.007 12.402 1.378 17.57 5.38 3.525 2.729 6.254 6.068 7.605 10.414 1.935 6.227-.742 13.303-7.764 15.423-1.696.504-3.445.821-4.373 1.034z" fill="#fff"/></svg>