<svg xmlns="http://www.w3.org/2000/svg" width="500" zoomAndPan="magnify" viewBox="0 0 375 375" height="500" preserveAspectRatio="xMidYMid meet" xmlns:v="https://vecta.io/nano"><style><![CDATA[.B{clip-rule:nonzero}.C{fill:rgb(21.958923%, 71.369934%, 100%)}]]></style><defs><clipPath id="A"><path d="M57.492 24.48h260.25v326.25H57.492zm0 0" class="B"/></clipPath><clipPath id="B"><path d="M259 12h80v80h-80zm0 0" class="B"/></clipPath><clipPath id="C"><path d="M242.895 55.488l68.945-68.945 52.5 52.504-68.941 68.941zm0 0" class="B"/></clipPath><clipPath id="D"><path d="M242.895 55.488l68.945-68.945 52.5 52.504-68.941 68.941zm0 0" class="B"/></clipPath><clipPath id="E"><path d="M69 108.055h237.551v209.25H69zm0 0" class="B"/></clipPath></defs><g clip-path="url(#A)" class="C"><path d="M317.641 95.594v-1.02s0-.512-.254-.766v-.254c0-.258-.258-.512-.258-.766v-.254c-.254-.258-.508-.512-.508-.766L250.332 25.5c-.254-.254-.508-.512-.762-.512h-.258c-.254-.254-.508-.254-.762-.254h-.258c-.254 0-.508-.254-.766-.254h-1.02H72.891c-8.414 0-15.297 6.883-15.297 15.293v295.664c0 8.41 6.883 15.293 15.297 15.293h229.453c8.414 0 15.297-6.883 15.297-15.293zm-10.199 239.59c0 2.801-2.293 5.098-5.098 5.098H72.891c-2.805 0-5.098-2.297-5.098-5.098V39.52c0-2.805 2.293-5.098 5.098-5.098h168.266v44.094c0 12.234 9.941 22.176 22.18 22.176h44.105zm0 0"/></g><g clip-path="url(#B)" class="C"><g clip-path="url(#C)"><g clip-path="url(#D)"><path d="M285.594 12.828l16.395 16.395-42.68 42.68 19.676 19.672 42.68-42.68 16.395 16.395.031-52.496zm0 0"/></g></g></g><g clip-path="url(#E)" class="C"><path d="M306.012 212.656c0-16.09-25.156-27.984-58.652-34.395 2.734-7.863 4.98-15.473 6.539-22.582 5.191-23.73 2.684-39.898-7.055-45.523-2.41-1.391-5.187-2.102-8.258-2.102-13.301 0-31.855 13.41-50.906 35.508-19.043-22.098-37.598-35.508-50.91-35.508-3.062 0-5.848.711-8.262 2.102-13.945 8.051-11.641 35.84-.414 68.094-33.543 6.395-58.754 18.301-58.754 34.406 0 16.094 25.168 27.98 58.672 34.395-2.746 7.867-4.992 15.473-6.547 22.578-5.195 23.734-2.691 39.902 7.043 45.523 2.414 1.395 5.199 2.098 8.262 2.098 13.313 0 31.863-13.414 50.91-35.504 19.043 22.09 37.598 35.508 50.906 35.508 3.07 0 5.852-.707 8.258-2.102 9.738-5.621 12.246-21.789 7.055-45.523-1.559-7.105-3.805-14.711-6.547-22.578 33.504-6.41 58.66-18.301 58.66-34.395zm-67.426-98.484c1.984 0 3.738.441 5.203 1.285 7.137 4.121 8.641 18.305 4.137 38.914-1.566 7.156-3.855 14.828-6.66 22.797-9.859-1.645-20.32-2.828-30.996-3.527-6.086-9.199-12.32-17.668-18.539-25.258 17.941-20.973 35.344-34.211 46.855-34.211zm-21.77 115.301a351.12 351.12 0 0 1-10.039 16.332c-6.148.313-12.512.488-19.098.488s-12.957-.176-19.094-.488c-3.434-5.246-6.793-10.699-10.039-16.332-3.285-5.695-6.316-11.293-9.109-16.762 2.852-5.605 5.863-11.25 9.113-16.875 3.242-5.629 6.605-11.078 10.035-16.336 6.137-.312 12.508-.488 19.094-.488s12.953.176 19.098.488a356.15 356.15 0 0 1 10.031 16.336c3.242 5.609 6.25 11.234 9.094 16.82-2.844 5.59-5.848 11.215-9.086 16.816zm12.445-10c3.758 7.816 7.102 15.523 9.941 23.008-7.691 1.234-15.996 2.191-24.824 2.848 2.613-4.145 5.195-8.414 7.73-12.793 2.512-4.348 4.871-8.711 7.152-13.062zm-26.687 32.617c-4.895 7.148-9.898 13.855-14.895 19.988-4.992-6.133-9.988-12.844-14.895-19.988a357.19 357.19 0 0 0 14.895.328c4.969-.004 9.941-.121 14.895-.328zm-41.59-6.762c-8.836-.656-17.141-1.617-24.828-2.848 2.844-7.473 6.18-15.184 9.934-23.008 2.297 4.398 4.684 8.758 7.16 13.063 2.535 4.379 5.117 8.648 7.734 12.793zm-14.922-39.422c-3.871-8.023-7.207-15.75-10-23.059 7.715-1.23 16.047-2.203 24.922-2.867a368.66 368.66 0 0 0-7.734 12.797c-2.527 4.371-4.891 8.762-7.187 13.129zm26.73-32.68c4.898-7.145 9.895-13.855 14.887-19.996 4.996 6.141 10 12.852 14.895 19.996a343.94 343.94 0 0 0-14.895-.328 343.58 343.58 0 0 0-14.887.328zm49.316 19.551c-2.535-4.398-5.113-8.652-7.73-12.797 8.828.664 17.133 1.625 24.824 2.852-2.84 7.473-6.184 15.195-9.941 23.012-2.281-4.352-4.641-8.719-7.152-13.066zm-90.539-77.32c1.465-.848 3.219-1.285 5.199-1.285 11.512 0 28.914 13.238 46.859 34.211-6.215 7.59-12.453 16.059-18.539 25.258-10.711.699-21.211 1.898-31.109 3.551-11.562-32.652-11.918-56.246-2.41-61.734zm-56.109 97.199c0-10.977 20.605-22.473 54.66-28.781 3.52 9.406 7.734 19.098 12.488 28.734-4.879 9.801-9.094 19.48-12.598 28.801-33.996-6.305-54.551-17.793-54.551-28.754zm61.309 98.48c-2.008 0-3.703-.422-5.199-1.273-7.133-4.125-8.641-18.309-4.133-38.918 1.57-7.156 3.852-14.84 6.66-22.805 9.863 1.648 20.324 2.828 30.988 3.531 6.09 9.195 12.32 17.664 18.539 25.258-17.941 20.973-35.344 34.207-46.855 34.207zm111.145-40.195c4.516 20.613 3.012 34.797-4.125 38.918-1.473.844-3.219 1.277-5.203 1.277-11.512 0-28.914-13.238-46.855-34.207 6.219-7.598 12.453-16.066 18.547-25.262 10.668-.699 21.129-1.883 30.988-3.527 2.805 7.965 5.094 15.645 6.648 22.801zm-2.57-29.527c-3.492-9.312-7.699-18.973-12.566-28.758 4.867-9.789 9.074-19.449 12.57-28.754 33.988 6.309 54.551 17.797 54.551 28.754s-20.562 22.449-54.555 28.758zm0 0"/></g><path d="M200.676 212.656c0 .852-.082 1.699-.25 2.535s-.41 1.648-.738 2.438a12.95 12.95 0 0 1-1.199 2.25c-.477.707-1.016 1.363-1.617 1.969s-1.262 1.141-1.969 1.617a12.95 12.95 0 0 1-2.25 1.199 13 13 0 0 1-2.437.742c-.836.164-1.684.25-2.535.25s-1.699-.086-2.535-.25-1.652-.414-2.437-.742a12.95 12.95 0 0 1-2.25-1.199c-.707-.477-1.363-1.016-1.969-1.617s-1.141-1.262-1.617-1.969a12.95 12.95 0 0 1-1.199-2.25 13 13 0 0 1-.742-2.437c-.164-.836-.25-1.684-.25-2.535s.086-1.699.25-2.539a13 13 0 0 1 .742-2.437c.324-.789.727-1.539 1.199-2.246s1.016-1.367 1.617-1.973 1.262-1.141 1.969-1.617a13.22 13.22 0 0 1 2.25-1.199 12.54 12.54 0 0 1 2.438-.738c.836-.168 1.68-.25 2.535-.25s1.699.082 2.535.25 1.648.41 2.438.738a13.22 13.22 0 0 1 2.25 1.199c.707.477 1.363 1.016 1.969 1.617s1.141 1.262 1.617 1.973.875 1.457 1.199 2.246.574 1.602.738 2.438.25 1.684.25 2.539zm0 0" class="C"/></svg>