<svg xmlns="http://www.w3.org/2000/svg" xmlns:xlink="http://www.w3.org/1999/xlink" width="500" zoomAndPan="magnify" viewBox="0 0 375 374.999991" height="500" preserveAspectRatio="xMidYMid meet" version="1.0"><defs><clipPath id="id1"><path d="M 57.492188 24.480469 L 317.742188 24.480469 L 317.742188 350.730469 L 57.492188 350.730469 Z M 57.492188 24.480469 " clip-rule="nonzero"/></clipPath><clipPath id="id2"><path d="M 259 12 L 339 12 L 339 92 L 259 92 Z M 259 12 " clip-rule="nonzero"/></clipPath><clipPath id="id3"><path d="M 242.894531 55.488281 L 311.839844 -13.457031 L 364.339844 39.046875 L 295.398438 107.988281 Z M 242.894531 55.488281 " clip-rule="nonzero"/></clipPath><clipPath id="id4"><path d="M 242.894531 55.488281 L 311.839844 -13.457031 L 364.339844 39.046875 L 295.398438 107.988281 Z M 242.894531 55.488281 " clip-rule="nonzero"/></clipPath><clipPath id="id5"><path d="M 69 108.054688 L 306.550781 108.054688 L 306.550781 317.304688 L 69 317.304688 Z M 69 108.054688 " clip-rule="nonzero"/></clipPath></defs><g clip-path="url(#id1)"><path fill="#a6a6a6" d="M 317.640625 95.59375 L 317.640625 94.574219 C 317.640625 94.574219 317.640625 94.0625 317.386719 93.808594 L 317.386719 93.554688 C 317.386719 93.296875 317.128906 93.042969 317.128906 92.789062 L 317.128906 92.535156 C 316.875 92.277344 316.621094 92.023438 316.621094 91.769531 L 250.332031 25.5 C 250.078125 25.246094 249.824219 24.988281 249.570312 24.988281 L 249.3125 24.988281 C 249.058594 24.734375 248.804688 24.734375 248.550781 24.734375 L 248.292969 24.734375 C 248.039062 24.734375 247.785156 24.480469 247.527344 24.480469 C 247.273438 24.480469 246.765625 24.480469 246.507812 24.480469 L 72.890625 24.480469 C 64.476562 24.480469 57.59375 31.363281 57.59375 39.773438 L 57.59375 335.4375 C 57.59375 343.847656 64.476562 350.730469 72.890625 350.730469 L 302.34375 350.730469 C 310.757812 350.730469 317.640625 343.847656 317.640625 335.4375 Z M 307.441406 335.183594 C 307.441406 337.984375 305.148438 340.28125 302.34375 340.28125 L 72.890625 340.28125 C 70.085938 340.28125 67.792969 337.984375 67.792969 335.183594 L 67.792969 39.519531 C 67.792969 36.714844 70.085938 34.421875 72.890625 34.421875 L 241.15625 34.421875 L 241.15625 78.515625 C 241.15625 90.75 251.097656 100.691406 263.335938 100.691406 L 307.441406 100.691406 Z M 307.441406 335.183594 " fill-opacity="1" fill-rule="nonzero"/></g><g clip-path="url(#id2)"><g clip-path="url(#id3)"><g clip-path="url(#id4)"><path fill="#a6a6a6" d="M 285.59375 12.828125 L 301.988281 29.222656 L 259.308594 71.902344 L 278.984375 91.574219 L 321.664062 48.894531 L 338.058594 65.289062 L 338.089844 12.792969 Z M 285.59375 12.828125 " fill-opacity="1" fill-rule="nonzero"/></g></g></g><g clip-path="url(#id5)"><path fill="#a6a6a6" d="M 306.011719 212.65625 C 306.011719 196.566406 280.855469 184.671875 247.359375 178.261719 C 250.09375 170.398438 252.339844 162.789062 253.898438 155.679688 C 259.089844 131.949219 256.582031 115.78125 246.84375 110.15625 C 244.433594 108.765625 241.65625 108.054688 238.585938 108.054688 C 225.285156 108.054688 206.730469 121.464844 187.679688 143.5625 C 168.636719 121.464844 150.082031 108.054688 136.769531 108.054688 C 133.707031 108.054688 130.921875 108.765625 128.507812 110.15625 C 114.5625 118.207031 116.867188 145.996094 128.09375 178.25 C 94.550781 184.644531 69.339844 196.550781 69.339844 212.65625 C 69.339844 228.75 94.507812 240.636719 128.011719 247.050781 C 125.265625 254.917969 123.019531 262.523438 121.464844 269.628906 C 116.269531 293.363281 118.773438 309.53125 128.507812 315.152344 C 130.921875 316.546875 133.707031 317.25 136.769531 317.25 C 150.082031 317.25 168.632812 303.835938 187.679688 281.746094 C 206.722656 303.835938 225.277344 317.253906 238.585938 317.253906 C 241.65625 317.253906 244.4375 316.546875 246.84375 315.152344 C 256.582031 309.53125 259.089844 293.363281 253.898438 269.628906 C 252.339844 262.523438 250.09375 254.917969 247.351562 247.050781 C 280.855469 240.640625 306.011719 228.75 306.011719 212.65625 Z M 238.585938 114.171875 C 240.570312 114.171875 242.324219 114.613281 243.789062 115.457031 C 250.925781 119.578125 252.429688 133.761719 247.925781 154.371094 C 246.359375 161.527344 244.070312 169.199219 241.265625 177.167969 C 231.40625 175.523438 220.945312 174.339844 210.269531 173.640625 C 204.183594 164.441406 197.949219 155.972656 191.730469 148.382812 C 209.671875 127.410156 227.074219 114.171875 238.585938 114.171875 Z M 216.816406 229.472656 C 213.5625 235.105469 210.203125 240.558594 206.777344 245.804688 C 200.628906 246.117188 194.265625 246.292969 187.679688 246.292969 C 181.09375 246.292969 174.722656 246.117188 168.585938 245.804688 C 165.152344 240.558594 161.792969 235.105469 158.546875 229.472656 C 155.261719 223.777344 152.230469 218.179688 149.4375 212.710938 C 152.289062 207.105469 155.300781 201.460938 158.550781 195.835938 C 161.792969 190.207031 165.15625 184.757812 168.585938 179.5 C 174.722656 179.1875 181.09375 179.011719 187.679688 179.011719 C 194.265625 179.011719 200.632812 179.1875 206.777344 179.5 C 210.203125 184.757812 213.558594 190.207031 216.808594 195.835938 C 220.050781 201.445312 223.058594 207.070312 225.902344 212.65625 C 223.058594 218.246094 220.054688 223.871094 216.816406 229.472656 Z M 229.261719 219.472656 C 233.019531 227.289062 236.363281 234.996094 239.203125 242.480469 C 231.511719 243.714844 223.207031 244.671875 214.378906 245.328125 C 216.992188 241.183594 219.574219 236.914062 222.109375 232.535156 C 224.621094 228.1875 226.980469 223.824219 229.261719 219.472656 Z M 202.574219 252.089844 C 197.679688 259.238281 192.675781 265.945312 187.679688 272.078125 C 182.6875 265.945312 177.691406 259.234375 172.785156 252.089844 C 177.742188 252.296875 182.714844 252.417969 187.679688 252.417969 C 192.648438 252.414062 197.621094 252.296875 202.574219 252.089844 Z M 160.984375 245.328125 C 152.148438 244.671875 143.84375 243.710938 136.15625 242.480469 C 139 235.007812 142.335938 227.296875 146.089844 219.472656 C 148.386719 223.871094 150.773438 228.230469 153.25 232.535156 C 155.785156 236.914062 158.367188 241.183594 160.984375 245.328125 Z M 146.0625 205.90625 C 142.191406 197.882812 138.855469 190.15625 136.0625 182.847656 C 143.777344 181.617188 152.109375 180.644531 160.984375 179.980469 C 158.363281 184.125 155.78125 188.390625 153.25 192.777344 C 150.722656 197.148438 148.359375 201.539062 146.0625 205.90625 Z M 172.792969 173.226562 C 177.691406 166.082031 182.6875 159.371094 187.679688 153.230469 C 192.675781 159.371094 197.679688 166.082031 202.574219 173.226562 C 197.621094 173.011719 192.648438 172.898438 187.679688 172.898438 C 182.714844 172.898438 177.742188 173.011719 172.792969 173.226562 Z M 222.109375 192.777344 C 219.574219 188.378906 216.996094 184.125 214.378906 179.980469 C 223.207031 180.644531 231.511719 181.605469 239.203125 182.832031 C 236.363281 190.304688 233.019531 198.027344 229.261719 205.84375 C 226.980469 201.492188 224.621094 197.125 222.109375 192.777344 Z M 131.570312 115.457031 C 133.035156 114.609375 134.789062 114.171875 136.769531 114.171875 C 148.28125 114.171875 165.683594 127.410156 183.628906 148.382812 C 177.414062 155.972656 171.175781 164.441406 165.089844 173.640625 C 154.378906 174.339844 143.878906 175.539062 133.980469 177.191406 C 122.417969 144.539062 122.0625 120.945312 131.570312 115.457031 Z M 75.460938 212.65625 C 75.460938 201.679688 96.066406 190.183594 130.121094 183.875 C 133.640625 193.28125 137.855469 202.972656 142.609375 212.609375 C 137.730469 222.410156 133.515625 232.089844 130.011719 241.410156 C 96.015625 235.105469 75.460938 223.617188 75.460938 212.65625 Z M 136.769531 311.136719 C 134.761719 311.136719 133.066406 310.714844 131.570312 309.863281 C 124.4375 305.738281 122.929688 291.554688 127.4375 270.945312 C 129.007812 263.789062 131.289062 256.105469 134.097656 248.140625 C 143.960938 249.789062 154.421875 250.96875 165.085938 251.671875 C 171.175781 260.867188 177.40625 269.335938 183.625 276.929688 C 165.683594 297.902344 148.28125 311.136719 136.769531 311.136719 Z M 247.914062 270.941406 C 252.429688 291.554688 250.925781 305.738281 243.789062 309.859375 C 242.316406 310.703125 240.570312 311.136719 238.585938 311.136719 C 227.074219 311.136719 209.671875 297.898438 191.730469 276.929688 C 197.949219 269.332031 204.183594 260.863281 210.277344 251.667969 C 220.945312 250.96875 231.40625 249.785156 241.265625 248.140625 C 244.070312 256.105469 246.359375 263.785156 247.914062 270.941406 Z M 245.34375 241.414062 C 241.851562 232.101562 237.644531 222.441406 232.777344 212.65625 C 237.644531 202.867188 241.851562 193.207031 245.347656 183.902344 C 279.335938 190.210938 299.898438 201.699219 299.898438 212.65625 C 299.898438 223.617188 279.335938 235.105469 245.34375 241.414062 Z M 245.34375 241.414062 " fill-opacity="1" fill-rule="nonzero"/></g><path fill="#a6a6a6" d="M 200.675781 212.65625 C 200.675781 213.507812 200.59375 214.355469 200.425781 215.191406 C 200.261719 216.027344 200.015625 216.839844 199.6875 217.628906 C 199.363281 218.417969 198.960938 219.167969 198.488281 219.878906 C 198.011719 220.585938 197.472656 221.242188 196.871094 221.847656 C 196.265625 222.449219 195.609375 222.988281 194.902344 223.464844 C 194.191406 223.9375 193.441406 224.339844 192.652344 224.664062 C 191.863281 224.992188 191.050781 225.238281 190.214844 225.40625 C 189.378906 225.570312 188.53125 225.65625 187.679688 225.65625 C 186.824219 225.65625 185.980469 225.570312 185.144531 225.40625 C 184.304688 225.238281 183.492188 224.992188 182.707031 224.664062 C 181.917969 224.339844 181.167969 223.9375 180.457031 223.464844 C 179.75 222.988281 179.09375 222.449219 178.488281 221.847656 C 177.886719 221.242188 177.347656 220.585938 176.871094 219.878906 C 176.398438 219.167969 175.996094 218.417969 175.671875 217.628906 C 175.34375 216.839844 175.097656 216.027344 174.929688 215.191406 C 174.765625 214.355469 174.679688 213.507812 174.679688 212.65625 C 174.679688 211.800781 174.765625 210.957031 174.929688 210.117188 C 175.097656 209.28125 175.34375 208.46875 175.671875 207.679688 C 175.996094 206.890625 176.398438 206.140625 176.871094 205.433594 C 177.347656 204.722656 177.886719 204.066406 178.488281 203.460938 C 179.09375 202.859375 179.75 202.320312 180.457031 201.84375 C 181.167969 201.371094 181.917969 200.972656 182.707031 200.644531 C 183.492188 200.316406 184.304688 200.070312 185.144531 199.90625 C 185.980469 199.738281 186.824219 199.65625 187.679688 199.65625 C 188.53125 199.65625 189.378906 199.738281 190.214844 199.90625 C 191.050781 200.070312 191.863281 200.316406 192.652344 200.644531 C 193.441406 200.972656 194.191406 201.371094 194.902344 201.84375 C 195.609375 202.320312 196.265625 202.859375 196.871094 203.460938 C 197.472656 204.066406 198.011719 204.722656 198.488281 205.433594 C 198.960938 206.140625 199.363281 206.890625 199.6875 207.679688 C 200.015625 208.46875 200.261719 209.28125 200.425781 210.117188 C 200.59375 210.957031 200.675781 211.800781 200.675781 212.65625 Z M 200.675781 212.65625 " fill-opacity="1" fill-rule="nonzero"/></svg>