<svg xmlns="http://www.w3.org/2000/svg" width="500" zoomAndPan="magnify" viewBox="0 0 375 375" height="500" preserveAspectRatio="xMidYMid meet" xmlns:v="https://vecta.io/nano"><style><![CDATA[.B{clip-rule:nonzero}.C{fill:rgb(100%, 100%, 100%)}.D{fill:rgb(85.099792%, 85.099792%, 85.099792%)}.E{fill:rgb(66.268921%, 66.268921%, 66.268921%)}]]></style><defs><clipPath id="A"><path d="M19.535 237h336v133.934h-336zm0 0" class="B"/></clipPath><clipPath id="B"><path d="M80 4.184h215V218H80zm0 0" class="B"/></clipPath></defs><path d="M-37.5-37.5h450v450h-450z" class="C"/><path d="M-37.5-37.5h450v450h-450z" class="D"/><path d="M-37.5-37.5h450v450h-450z" class="C"/><path d="M-37.5-37.5h450v450h-450z" class="D"/><g clip-path="url(#A)" class="E"><path d="M355.461 370.895l.141-4.273c0-71.574-75.219-129.582-168.012-129.582S19.578 295.047 19.578 366.621c0 1.43.074 2.848.133 4.273h335.75"/></g><g clip-path="url(#B)" class="E"><path d="M294.375 111.016c0 58.988-47.812 106.801-106.785 106.801-58.98 0-106.793-47.812-106.793-106.801 0-58.98 47.813-106.797 106.793-106.797 58.973 0 106.785 47.816 106.785 106.797"/></g></svg>